# xmcd
#
# Track frame offsets:
# 150
# 26405
# 51063
# 76316
# 97998
# 123039
# 144817
# 161120
# 187994
# 215897
#
# Disc length: 3233 seconds
#
#
# Revision: 0
# Processed by: cddbd v1.5.1PL2 Copyright (c) Steve Scherf et al.
# Submitted via: FreeRIP 2.944 
#
DISCID=7a0c9f0a
DTITLE=Solon Fishbone - instrumenta mood
DYEAR=1900
DGENRE=Blues
TTITLE0=blue hand
TTITLE1=jamming in C
TTITLE2=fishing
TTITLE3=peace out
TTITLE4=hip funk
TTITLE5=bonanza
TTITLE6=just picking
TTITLE7=melódica
TTITLE8=wes side
TTITLE9=instrumental mood
EXTD=
EXTT0=
EXTT1=
EXTT2=
EXTT3=
EXTT4=
EXTT5=
EXTT6=
EXTT7=
EXTT8=
EXTT9=
PLAYORDER=
